HIERARCHY
ROOT hip
{
  OFFSET 0 0 0
  CHANNELS 6 Xposition Yposition Zposition Zrotation Yrotation Xrotation
  JOINT abdomen
  {
    OFFSET 0 20.6881 -0.73152
    CHANNELS 3 Zrotation Xrotation Yrotation
    JOINT chest
    {
      OFFSET 0 11.7043 -0.48768
      CHANNELS 3 Zrotation Xrotation Yrotation
      JOINT neck
      {
        OFFSET 0 22.1894 -2.19456
        CHANNELS 3 Zrotation Xrotation Yrotation
        JOINT head
        {
          OFFSET -0.24384 7.07133 1.2192
          CHANNELS 3 Zrotation Xrotation Yrotation
          JOINT leftEye
          {
            OFFSET 4.14528 8.04674 8.04672
            CHANNELS 3 Zrotation Xrotation Yrotation
            End Site
            {
              OFFSET 1 0 0
            }
          }
          JOINT rightEye
          {
            OFFSET -3.6576 8.04674 8.04672
            CHANNELS 3 Zrotation Xrotation Yrotation
            End Site
            {
              OFFSET 1 0 0
            }
          }
        }
      }
      JOINT rCollar
      {
        OFFSET -2.68224 19.2634 -4.8768
        CHANNELS 3 Zrotation Xrotation Yrotation
        JOINT rShldr
        {
          OFFSET -8.77824 -1.95073 1.46304
          CHANNELS 3 Zrotation Xrotation Yrotation
          JOINT rForeArm
          {
            OFFSET -28.1742 -1.7115 0.48768
            CHANNELS 3 Zrotation Xrotation Yrotation
            JOINT rHand
            {
              OFFSET -22.5879 0.773209 7.07136
              CHANNELS 3 Zrotation Xrotation Yrotation
              JOINT rThumb1
              {
                OFFSET -1.2192 -0.487915 3.41376
                CHANNELS 3 Zrotation Xrotation Yrotation
                JOINT rThumb2
                {
                  OFFSET -3.37035 -0.52449 3.41376
                  CHANNELS 3 Zrotation Xrotation Yrotation
                  End Site
                  {
                    OFFSET -1.78271 -1.18214 1.43049
                  }
                }
              }
              JOINT rIndex1
              {
                OFFSET -7.75947 0.938293 5.60832
                CHANNELS 3 Zrotation Xrotation Yrotation
                JOINT rIndex2
                {
                  OFFSET -2.54057 -0.884171 1.56538
                  CHANNELS 3 Zrotation Xrotation Yrotation
                  End Site
                  {
                    OFFSET -1.62519 -0.234802 1.16502
                  }
                }
              }
              JOINT rMid1
              {
                OFFSET -8.24714 1.18213 3.41376
                CHANNELS 3 Zrotation Xrotation Yrotation
                JOINT rMid2
                {
                  OFFSET -3.10165 -0.590103 1.0647
                  CHANNELS 3 Zrotation Xrotation Yrotation
                  End Site
                  {
                    OFFSET -2.48547 -0.328903 0.83742
                  }
                }
              }
              JOINT rRing1
              {
                OFFSET -8.82822 0.546677 1.51678
                CHANNELS 3 Zrotation Xrotation Yrotation
                JOINT rRing2
                {
                  OFFSET -2.60934 -0.819778 -0.0198488
                  CHANNELS 3 Zrotation Xrotation Yrotation
                  End Site
                  {
                    OFFSET -2.33842 -0.294052 0.168128
                  }
                }
              }
              JOINT rPinky1
              {
                OFFSET -8.27202 -0.0477905 -0.4584
                CHANNELS 3 Zrotation Xrotation Yrotation
                JOINT rPinky2
                {
                  OFFSET -1.82734 -0.647385 -0.700984
                  CHANNELS 3 Zrotation Xrotation Yrotation
                  End Site
                  {
                    OFFSET -1.69225 -0.51767 -0.607171
                  }
                }
              }
            }
          }
        }
      }
      JOINT lCollar
      {
        OFFSET 2.68224 19.2634 -4.8768
        CHANNELS 3 Zrotation Xrotation Yrotation
        JOINT lShldr
        {
          OFFSET 8.77824 -1.95073 1.46304
          CHANNELS 3 Zrotation Xrotation Yrotation
          JOINT lForeArm
          {
            OFFSET 28.1742 -1.7115 0.48768
            CHANNELS 3 Zrotation Xrotation Yrotation
            JOINT lHand
            {
              OFFSET 22.5879 0.773209 7.07136
              CHANNELS 3 Zrotation Xrotation Yrotation
              JOINT lThumb1
              {
                OFFSET 1.2192 -0.487915 3.41376
                CHANNELS 3 Zrotation Xrotation Yrotation
                JOINT lThumb2
                {
                  OFFSET 3.37035 -0.52449 3.41376
                  CHANNELS 3 Zrotation Xrotation Yrotation
                  End Site
                  {
                    OFFSET 1.78271 -1.18214 1.43049
                  }
                }
              }
              JOINT lIndex1
              {
                OFFSET 7.75947 0.938293 5.60832
                CHANNELS 3 Zrotation Xrotation Yrotation
                JOINT lIndex2
                {
                  OFFSET 2.54057 -0.884171 1.56538
                  CHANNELS 3 Zrotation Xrotation Yrotation
                  End Site
                  {
                    OFFSET 1.62519 -0.234802 1.16502
                  }
                }
              }
              JOINT lMid1
              {
                OFFSET 8.24714 1.18213 3.41376
                CHANNELS 3 Zrotation Xrotation Yrotation
                JOINT lMid2
                {
                  OFFSET 3.10165 -0.590103 1.0647
                  CHANNELS 3 Zrotation Xrotation Yrotation
                  End Site
                  {
                    OFFSET 2.48547 -0.328903 0.83742
                  }
                }
              }
              JOINT lRing1
              {
                OFFSET 8.82822 0.546677 1.51678
                CHANNELS 3 Zrotation Xrotation Yrotation
                JOINT lRing2
                {
                  OFFSET 2.60934 -0.819778 -0.0198488
                  CHANNELS 3 Zrotation Xrotation Yrotation
                  End Site
                  {
                    OFFSET 2.33842 -0.294052 0.168128
                  }
                }
              }
              JOINT lPinky1
              {
                OFFSET 8.27202 -0.0477905 -0.4584
                CHANNELS 3 Zrotation Xrotation Yrotation
                JOINT lPinky2
                {
                  OFFSET 1.82734 -0.647385 -0.700984
                  CHANNELS 3 Zrotation Xrotation Yrotation
                  End Site
                  {
                    OFFSET 1.69225 -0.51767 -0.607171
                  }
                }
              }
            }
          }
        }
      }
    }
  }
  JOINT rButtock
  {
    OFFSET -8.77824 4.35084 1.2192
    CHANNELS 3 Zrotation Xrotation Yrotation
    JOINT rThigh
    {
      OFFSET 0 -1.70687 -2.19456
      CHANNELS 3 Zrotation Xrotation Yrotation
      JOINT rShin
      {
        OFFSET 0 -36.8199 0.73152
        CHANNELS 3 Zrotation Xrotation Yrotation
        JOINT rFoot
        {
          OFFSET 0.73152 -45.1104 -5.12064
          CHANNELS 3 Zrotation Xrotation Yrotation
          End Site
          {
            OFFSET -1.1221 -3.69964 12.103
          }
        }
      }
    }
  }
  JOINT lButtock
  {
    OFFSET 8.77824 4.35084 1.2192
    CHANNELS 3 Zrotation Xrotation Yrotation
    JOINT lThigh
    {
      OFFSET 0 -1.70687 -2.19456
      CHANNELS 3 Zrotation Xrotation Yrotation
      JOINT lShin
      {
        OFFSET 0 -36.8199 0.73152
        CHANNELS 3 Zrotation Xrotation Yrotation
        JOINT lFoot
        {
          OFFSET -0.73152 -45.1104 -5.12064
          CHANNELS 3 Zrotation Xrotation Yrotation
          End Site
          {
            OFFSET 1.1221 -3.69964 12.103
          }
        }
      }
    }
  }
}
MOTION
Frames:	8
Frame Time:	0.00833333
-71.6924 85.1887 0.966493 0.0 0.0 0.0 0.559351 -0.00286671 0.0159889 0.154366 -0.00442833 0.0267461 3.14654e-15 7.95139e-16 -9.31803e-17 9.44848e-15 3.18055e-15 -2.64011e-16 -0.0 0.0 0.0 -0.0 0.0 0.0 1.63875e-15 7.76503e-18 1.49089e-16 3.37746e-14 6.21202e-18 0.0 5.67431e-13 -1.62208e-13 -2.22639e-14 6.46653e-12 2.0276e-13 -1.90833e-13 1.52547e-11 9.0012e-14 -4.45278e-13 2.63322e-11 1.55847e-13 -7.62538e-13 1.52555e-11 8.78628e-14 -4.51639e-13 7.73091 5.47488 0.417314 1.52531e-11 8.94531e-14 -4.42097e-13 2.90554 0.965183 0.102902 1.52569e-11 8.94531e-14 -4.38121e-13 10.2786 0.731801 0.0259123 1.52454e-11 9.26337e-14 -4.23014e-13 2.22167 -0.733487 -0.20892 1.34313e-15 6.60027e-18 -2.48481e-16 3.14461e-14 6.21202e-18 -1.59028e-15 5.59927e-13 1.75129e-13 -2.8625e-14 6.46289e-12 -1.37186e-13 -1.62208e-13 1.52401e-11 8.48947e-14 -4.23014e-13 2.63338e-11 1.49486e-13 -7.43455e-13 1.52384e-11 8.26944e-14 -4.16653e-13 -7.73091 5.47488 -0.417314 1.52414e-11 8.39865e-14 -4.35736e-13 -2.90554 0.965183 -0.102902 1.52414e-11 8.48811e-14 -4.33351e-13 -10.2786 0.731801 -0.0259123 1.52502e-11 8.74653e-14 -4.48458e-13 -2.22167 -0.733487 0.20892 -2.03217e-16 0.0 -3.88251e-19 0.922987 -4.50513 -0.0770314 -0.00206825 2.60853 -0.00962928 -0.502454 1.89677 0.0959411 2.03217e-16 0.0 3.88251e-19 -0.0712528 -2.35215 0.0224559 0.008072 -1.29119 0.069199 0.494623 3.64342 -0.130519
-68.8195 84.2255 -2.21821 -103.168 86.4703 -95.4829 1.62575 -1.44319 0.473018 -0.395923 1.15399 0.161218 -1.7222 2.49786 -3.6144 2.85017 -4.4685 -6.56834 -0.0 0.0 0.0 -0.0 0.0 0.0 -3.01212e-15 -4.44471e-13 1.61862e-15 23.2658 16.7382 -0.559479 -26.5757 -24.2191 13.8985 0.0155722 -2.76888 -0.387501 1.45838e-10 -5.13481e-10 -6.90469e-10 2.57094e-10 -8.89628e-10 -1.19288e-09 1.45841e-10 -5.13485e-10 -6.90482e-10 7.73091 5.47488 0.417314 1.45836e-10 -5.13481e-10 -6.90466e-10 2.90554 0.965183 0.102902 1.45841e-10 -5.13481e-10 -6.90463e-10 10.2786 0.731801 0.0259123 1.4583e-10 -5.13479e-10 -6.90452e-10 2.22167 -0.733487 -0.20892 -3.23893e-15 -4.44472e-13 1.21872e-15 -19.3066 21.2007 -4.24013 27.0571 -24.6298 -13.7095 -0.0670821 -5.75087 0.793603 2.92493e-11 -8.24836e-10 5.12004e-10 4.24441e-11 -1.42825e-09 8.85158e-10 2.92462e-11 -8.24839e-10 5.12013e-10 -7.73091 5.47488 -0.417314 2.92513e-11 -8.24837e-10 5.11996e-10 -2.90554 0.965183 -0.102902 2.92479e-11 -8.24837e-10 5.11998e-10 -10.2786 0.731801 -0.0259123 2.9257e-11 -8.24835e-10 5.11984e-10 -2.22167 -0.733487 0.20892 -2.03217e-16 0.0 -3.88251e-19 -0.572325 -10.1538 1.53022 -0.00658087 5.6148 0.0184889 -0.68937 0.547545 -4.62776 2.03217e-16 0.0 3.88251e-19 1.01471 -4.04716 1.52491 0.00548745 2.3853 0.00418138 0.462162 -2.33365 0.151702
-69.3632 84.1958 -2.77687 -97.2234 87.4526 -89.6428 2.83248 -2.99382 0.957287 -0.988656 2.37616 0.303162 -3.23119 5.06967 -7.46521 4.79299 -8.89113 -13.6477 -0.0 0.0 0.0 -0.0 0.0 0.0 -8.24113e-15 -9.69312e-13 3.16503e-15 48.2776 34.4325 -1.33811 -38.0242 -44.4201 37.9012 -0.00888801 -5.69983 -0.800764 3.13412e-10 -1.15693e-09 -1.56695e-09 5.53168e-10 -2.00448e-09 -2.70721e-09 3.13418e-10 -1.15693e-09 -1.56697e-09 7.73091 5.47488 0.417314 3.1341e-10 -1.15693e-09 -1.56695e-09 2.90554 0.965183 0.102902 3.13417e-10 -1.15693e-09 -1.56695e-09 10.2786 0.731801 0.0259123 3.13405e-10 -1.15693e-09 -1.56694e-09 2.22167 -0.733487 -0.20892 -8.39521e-15 -9.69313e-13 2.76124e-15 -35.1729 43.2017 -11.1991 38.6921 -45.2703 -37.8635 0.038679 -11.8335 1.66053 4.40935e-11 -1.87112e-09 1.16959e-09 5.77022e-11 -3.23989e-09 2.02202e-09 4.40887e-11 -1.87112e-09 1.1696e-09 -7.73091 5.47488 -0.417314 4.40962e-11 -1.87112e-09 1.16959e-09 -2.90554 0.965183 -0.102902 4.40892e-11 -1.87112e-09 1.16959e-09 -10.2786 0.731801 -0.0259123 4.40988e-11 -1.87112e-09 1.16957e-09 -2.22167 -0.733487 0.20892 -2.03217e-16 0.0 -3.88251e-19 -1.74563 -16.0968 3.35527 -0.0147541 8.76009 0.0470592 -1.11691 -0.815271 -9.61714 2.03217e-16 0.0 3.88251e-19 2.31386 -5.86293 3.11879 0.0120659 6.31283 -0.0652429 0.491493 -8.6655 0.450678
-69.867 84.1347 -3.23185 -84.4426 88.0994 -77.1017 3.82763 -4.32272 1.39058 -1.51284 3.47073 0.430853 -4.22078 7.37393 -10.9243 5.48024 -12.6948 -20.1582 -0.0 0.0 0.0 -0.0 0.0 0.0 -1.23138e-14 -1.33343e-12 4.55768e-15 71.2432 50.1898 -2.51095 -31.2566 -49.4701 71.1888 -0.0666472 -8.30511 -1.17345 4.07003e-10 -1.54062e-09 -2.07052e-09 7.18617e-10 -2.6692e-09 -3.57713e-09 4.07012e-10 -1.54063e-09 -2.07054e-09 7.73091 5.47488 0.417314 4.07002e-10 -1.54062e-09 -2.07051e-09 2.90554 0.965183 0.102902 4.0701e-10 -1.54062e-09 -2.07051e-09 10.2786 0.731801 0.0259123 4.06998e-10 -1.54062e-09 -2.07051e-09 2.22167 -0.733487 -0.20892 -1.24031e-14 -1.33343e-12 4.15312e-15 -39.8965 61.3802 -25.4039 31.2552 -50.434 -72.1528 0.295656 -17.239 2.48031 5.72677e-11 -2.47468e-09 1.53686e-09 7.46647e-11 -4.28506e-09 2.65696e-09 5.72616e-11 -2.47468e-09 1.53687e-09 -7.73091 5.47488 -0.417314 5.7271e-11 -2.47468e-09 1.53686e-09 -2.90554 0.965183 -0.102902 5.72609e-11 -2.47468e-09 1.53686e-09 -10.2786 0.731801 -0.0259123 5.72707e-11 -2.47468e-09 1.53685e-09 -2.22167 -0.733487 0.20892 -2.03217e-16 0.0 -3.88251e-19 -2.55031 -21.3868 5.01873 -0.0246199 11.6273 0.0759987 -1.7245 -2.0811 -14.0839 2.03217e-16 0.0 3.88251e-19 3.45506 -7.41821 4.55667 0.025554 9.73827 -0.127669 0.57744 -14.2867 0.738068
-70.3012 84.0945 -3.65236 -68.9778 88.5467 -61.9795 4.24277 -5.09841 1.69281 -1.85425 4.24635 0.522273 -4.56019 9.12042 -13.3319 5.07398 -15.5917 -24.8623 -0.0 0.0 0.0 -0.0 0.0 0.0 -1.34958e-14 -1.29574e-12 5.56597e-15 88.0894 61.1239 -4.0418 -27.1229 -43.6775 90.8073 -0.126712 -10.0977 -1.43417 3.15638e-10 -1.27494e-09 -1.6418e-09 5.57501e-10 -2.20857e-09 -2.83603e-09 3.15648e-10 -1.27495e-09 -1.64183e-09 7.73091 5.47488 0.417314 3.15637e-10 -1.27494e-09 -1.6418e-09 2.90554 0.965183 0.102902 3.15646e-10 -1.27494e-09 -1.6418e-09 10.2786 0.731801 0.0259123 3.15634e-10 -1.27494e-09 -1.64179e-09 2.22167 -0.733487 -0.20892 -1.35398e-14 -1.29574e-12 5.1684e-15 -27.7118 71.0437 -49.9981 26.8347 -44.4442 -92.3319 0.571271 -20.9649 3.08686 6.62668e-11 -1.97142e-09 1.17834e-09 9.58882e-11 -3.41409e-09 2.03712e-09 6.62605e-11 -1.97142e-09 1.17835e-09 -7.73091 5.47488 -0.417314 6.62706e-11 -1.97142e-09 1.17834e-09 -2.90554 0.965183 -0.102902 6.62584e-11 -1.97142e-09 1.17834e-09 -10.2786 0.731801 -0.0259123 6.6268e-11 -1.97142e-09 1.17834e-09 -2.22167 -0.733487 0.20892 -2.03217e-16 0.0 -3.88251e-19 -3.21169 -25.1111 6.02049 -0.0333011 13.7994 0.104944 -2.35609 -3.17145 -17.2341 2.03217e-16 0.0 3.88251e-19 4.00456 -8.33954 5.58026 0.0377737 11.9085 -0.170372 0.679969 -18.1325 0.972626
-70.7086 84.0574 -3.99227 -39.9378 88.6659 -33.1787 3.72755 -5.05281 1.81275 -1.91685 4.5814 0.564194 -4.21575 10.2162 -14.2165 3.90829 -17.8525 -26.8334 -0.0 0.0 0.0 -0.0 0.0 0.0 -9.35e-15 -6.80985e-13 5.0694e-15 95.1104 65.3384 -4.93658 -27.1704 -39.9719 95.9564 -0.153901 -10.7691 -1.53296 -1.10123e-10 1.46622e-10 4.63071e-10 -1.9405e-10 2.55225e-10 8.01581e-10 -1.10113e-10 1.46614e-10 4.63039e-10 7.73091 5.47488 0.417314 -1.10124e-10 1.46625e-10 4.63069e-10 2.90554 0.965183 0.102902 -1.10115e-10 1.46625e-10 4.63071e-10 10.2786 0.731801 0.0259123 -1.10126e-10 1.46624e-10 4.63073e-10 2.22167 -0.733487 -0.20892 -9.37519e-15 -6.80986e-13 4.69085e-15 -17.3709 73.0052 -64.8964 26.8837 -40.6786 -97.6758 0.697362 -22.3452 3.32302 6.5906e-11 5.39852e-10 -4.98142e-10 1.21812e-10 9.33235e-10 -8.61422e-10 6.59012e-11 5.39852e-10 -4.98131e-10 -7.73091 5.47488 -0.417314 6.59099e-11 5.39852e-10 -4.9814e-10 -2.90554 0.965183 -0.102902 6.58971e-11 5.39853e-10 -4.9814e-10 -10.2786 0.731801 -0.0259123 6.59057e-11 5.39851e-10 -4.98146e-10 -2.22167 -0.733487 0.20892 -2.03217e-16 0.0 -3.88251e-19 -4.16033 -26.6517 5.90452 -0.0375491 14.9464 0.133352 -2.86081 -4.1386 -18.5732 2.03217e-16 0.0 3.88251e-19 3.54694 -8.30519 6.03793 0.0394593 12.2543 -0.182131 0.732173 -19.487 1.08021
-71.0776 84.0498 -4.34747 -11.7195 88.6331 -5.2714 2.54838 -4.42301 1.80199 -1.77989 4.60148 0.570541 -3.46641 10.8705 -13.9966 2.47146 -19.8157 -26.7838 -0.0 0.0 0.0 -0.0 0.0 0.0 -1.45964e-15 3.45261e-13 3.54396e-15 94.3939 64.771 -4.68872 -27.1624 -40.2985 95.1934 -0.149235 -10.6392 -1.51389 -7.71145e-10 2.38207e-09 3.74752e-09 -1.36099e-09 4.12949e-09 6.47761e-09 -7.71137e-10 2.38206e-09 3.74749e-09 7.73091 5.47488 0.417314 -7.71146e-10 2.38207e-09 3.74752e-09 2.90554 0.965183 0.102902 -7.71137e-10 2.38207e-09 3.74752e-09 10.2786 0.731801 0.0259123 -7.71148e-10 2.38207e-09 3.74752e-09 2.22167 -0.733487 -0.20892 -1.48495e-15 3.4526e-13 3.19298e-15 -20.3253 72.6633 -61.181 26.8415 -41.0977 -97.0928 0.673645 -22.0532 3.27351 5.90268e-11 4.46358e-09 -3.10166e-09 1.51153e-10 7.72588e-09 -5.36275e-09 5.9025e-11 4.46358e-09 -3.10165e-09 -7.73091 5.47488 -0.417314 5.90308e-11 4.46358e-09 -3.10166e-09 -2.90554 0.965183 -0.102902 5.90184e-11 4.46358e-09 -3.10166e-09 -10.2786 0.731801 -0.0259123 5.90253e-11 4.46358e-09 -3.10166e-09 -2.22167 -0.733487 0.20892 -2.03217e-16 0.0 -3.88251e-19 -5.38256 -26.6381 4.94796 -0.0378277 15.3638 0.161127 -3.21312 -5.03743 -18.6144 2.03217e-16 0.0 3.88251e-19 2.35639 -7.59495 6.08751 0.0322495 11.3001 -0.171509 0.731899 -19.0627 1.09142
-71.4479 84.0342 -4.69303 9.1732 88.3078 15.3445 1.25891 -3.6356 1.73357 -1.59155 4.48615 0.559886 -2.67443 11.2691 -13.3334 1.22039 -21.4221 -25.8555 -0.0 0.0 0.0 -0.0 0.0 0.0 5.8794e-15 1.51286e-12 3.15377e-15 90.6253 62.2864 -4.06021 -27.1424 -42.2087 92.0622 -0.131422 -10.1639 -1.44414 -1.40554e-09 4.54826e-09 6.91029e-09 -2.48091e-09 7.88364e-09 1.19432e-08 -1.40553e-09 4.54825e-09 6.91027e-09 7.73091 5.47488 0.417314 -1.40554e-09 4.54826e-09 6.91029e-09 2.90554 0.965183 0.102902 -1.40553e-09 4.54826e-09 6.91029e-09 10.2786 0.731801 0.0259123 -1.40554e-09 4.54826e-09 6.9103e-09 2.22167 -0.733487 -0.20892 5.84464e-15 1.51286e-12 2.83191e-15 -28.0186 71.1979 -50.602 26.7675 -43.1874 -94.1372 0.592238 -21.0977 3.11165 5.51641e-11 8.21876e-09 -5.593e-09 1.83885e-10 1.42266e-08 -9.66999e-09 5.51651e-11 8.21876e-09 -5.59299e-09 -7.73091 5.47488 -0.417314 5.51679e-11 8.21876e-09 -5.593e-09 -2.90554 0.965183 -0.102902 5.51566e-11 8.21876e-09 -5.593e-09 -10.2786 0.731801 -0.0259123 5.5162e-11 8.21876e-09 -5.593e-09 -2.22167 -0.733487 0.20892 -2.03217e-16 0.0 -3.88251e-19 -6.5155 -26.0477 3.69032 -0.0369397 15.5721 0.188525 -3.43281 -5.81027 -18.0693 2.03217e-16 0.0 3.88251e-19 1.02386 -6.74088 5.93 0.022858 9.93345 -0.154595 0.728904 -17.9375 1.11503
